<?xml version="1.0" encoding="UTF-8"?>
<!DOCTYPE svg PUBLIC "-//W3C//DTD SVG 1.1//EN" "http://www.w3.org/Graphics/SVG/1.1/DTD/svg11.dtd">
<svg xmlns="http://www.w3.org/2000/svg" version="1.1" width="1080px" height="1080px" style="shape-rendering:geometricPrecision; text-rendering:geometricPrecision; image-rendering:optimizeQuality; fill-rule:evenodd; clip-rule:evenodd" xmlns:xlink="http://www.w3.org/1999/xlink">
<g><path style="opacity:0.98" fill="#2aacff" d="M 496.5,220.5 C 524.5,220.5 552.5,220.5 580.5,220.5C 577.893,227.048 574.726,233.381 571,239.5C 465.661,420.84 360.828,602.507 256.5,784.5C 282.833,785.833 309.167,785.833 335.5,784.5C 429.757,619.641 524.757,455.307 620.5,291.5C 730.618,480.072 839.951,669.072 948.5,858.5C 866.499,858.667 784.499,858.5 702.5,858C 660.655,787.312 619.322,716.312 578.5,645C 592.16,621.349 605.826,597.683 619.5,574C 620.449,573.383 621.282,573.549 622,574.5C 662.667,644.5 703.333,714.5 744,784.5C 770.101,785.827 796.267,785.827 822.5,784.5C 754.368,669.352 687.035,553.685 620.5,437.5C 539.336,577.515 458.336,717.682 377.5,858C 295.167,858.5 212.834,858.667 130.5,858.5C 252.056,645.603 374.056,432.936 496.5,220.5 Z"/></g>
</svg>
